<svg width="32" height="32" viewBox="0 0 32 32" fill="none" xmlns="http://www.w3.org/2000/svg">
  <!-- Background -->
  <rect width="32" height="32" rx="6" fill="#FF6B35"/>
  
  <!-- Shark body -->
  <path d="M6 16C6 16 8 12 12 12C16 12 20 14 24 16C20 18 16 20 12 20C8 20 6 16 6 16Z" fill="white"/>
  
  <!-- Shark dorsal fin -->
  <path d="M14 12C14 12 16 8 18 10C16 12 14 12 14 12Z" fill="white"/>
  
  <!-- Shark tail -->
  <path d="M24 16C24 16 26 14 28 16C26 18 24 16 24 16Z" fill="white"/>
  
  <!-- Shark eye -->
  <circle cx="10" cy="15" r="1.5" fill="#FF6B35"/>
  
  <!-- Shark teeth -->
  <path d="M8 16L10 17L8 18M10 16L12 17L10 18" stroke="white" stroke-width="0.5" fill="none"/>
</svg>