<svg width="32" height="32" viewBox="0 0 32 32" fill="none" xmlns="http://www.w3.org/2000/svg">
  <rect width="32" height="32" rx="6" fill="#FF0000"/>
  <path d="M8 12.5C8 10.567 9.567 9 11.5 9H20.5C22.433 9 24 10.567 24 12.5V19.5C24 21.433 22.433 23 20.5 23H11.5C9.567 23 8 21.433 8 19.5V12.5Z" fill="white"/>
  <path d="M14 13V19L19 16L14 13Z" fill="#FF0000"/>
  <path d="M6 16C6 14.5 6.5 13.5 7.5 13L9 14.5C8.5 15 8.5 16.5 9 17L7.5 19C6.5 18.5 6 17.5 6 16Z" fill="#FF0000"/>
  <path d="M25.5 13C26.5 13.5 27 14.5 27 16C27 17.5 26.5 18.5 25.5 19L24 17.5C24.5 16.5 24.5 15 24 14.5L25.5 13Z" fill="#FF0000"/>
</svg>